<svg id="visual" viewBox="0 0 900 600" width="900" height="600" xmlns="http://www.w3.org/2000/svg" xmlns:xlink="http://www.w3.org/1999/xlink" version="1.1"><rect x="0" y="0" width="900" height="600" fill="#5f259f"></rect><path d="M0 137L129 142L257 131L386 178L514 265L643 166L771 129L900 184L900 601L771 601L643 601L514 601L386 601L257 601L129 601L0 601Z" fill="#ffc72a"></path><path d="M0 299L129 324L257 308L386 325L514 227L643 281L771 196L900 336L900 601L771 601L643 601L514 601L386 601L257 601L129 601L0 601Z" fill="#feb31a"></path><path d="M0 424L129 387L257 390L386 313L514 320L643 411L771 307L900 413L900 601L771 601L643 601L514 601L386 601L257 601L129 601L0 601Z" fill="#fc9e0d"></path><path d="M0 396L129 401L257 448L386 486L514 449L643 444L771 365L900 411L900 601L771 601L643 601L514 601L386 601L257 601L129 601L0 601Z" fill="#f98907"></path><path d="M0 544L129 478L257 469L386 545L514 475L643 544L771 528L900 541L900 601L771 601L643 601L514 601L386 601L257 601L129 601L0 601Z" fill="#f5730a"></path></svg>