<svg id="visual" viewBox="0 0 960 540" width="960" height="540" xmlns="http://www.w3.org/2000/svg" xmlns:xlink="http://www.w3.org/1999/xlink" version="1.1"><g stroke-width="1" stroke-linejoin="bevel"><path d="M501.9 280L470.1 243L465.1 290.5Z" fill="#5f259f" stroke="#5f259f"></path><path d="M560.9 354.5L558.8 283L501.9 280Z" fill="#002148" stroke="#002148"></path><path d="M583.8 237.5L489.9 180.5L470.1 243Z" fill="#00101c" stroke="#00101c"></path><path d="M583.8 237.5L470.1 243L501.9 280Z" fill="#00101c" stroke="#00101c"></path><path d="M489.9 180.5L395.1 203.5L470.1 243Z" fill="#001c39" stroke="#001c39"></path><path d="M470.1 243L395.1 203.5L465.1 290.5Z" fill="#4b2a96" stroke="#4b2a96"></path><path d="M558.8 283L583.8 237.5L501.9 280Z" fill="#5f259f" stroke="#5f259f"></path><path d="M470.9 392L560.9 354.5L501.9 280Z" fill="#5f259f" stroke="#5f259f"></path><path d="M558.8 283L607.8 286.5L583.8 237.5Z" fill="#00101c" stroke="#00101c"></path><path d="M419.2 412L470.9 392L465.1 290.5Z" fill="#002148" stroke="#002148"></path><path d="M465.1 290.5L470.9 392L501.9 280Z" fill="#00172a" stroke="#00172a"></path><path d="M395.1 203.5L360.2 309L465.1 290.5Z" fill="#372c8b" stroke="#372c8b"></path><path d="M560.9 354.5L607.8 286.5L558.8 283Z" fill="#002557" stroke="#002557"></path><path d="M470.9 392L567.8 370L560.9 354.5Z" fill="#122a72" stroke="#122a72"></path><path d="M560.9 354.5L660.6 334.5L607.8 286.5Z" fill="#252c7f" stroke="#252c7f"></path><path d="M565.9 150L538.8 138L489.9 180.5Z" fill="#002557" stroke="#002557"></path><path d="M489.9 180.5L459.1 117L395.1 203.5Z" fill="#4b2a96" stroke="#4b2a96"></path><path d="M565.9 150L489.9 180.5L583.8 237.5Z" fill="#4b2a96" stroke="#4b2a96"></path><path d="M621.6 219.5L565.9 150L583.8 237.5Z" fill="#00101c" stroke="#00101c"></path><path d="M607.8 286.5L621.6 219.5L583.8 237.5Z" fill="#252c7f" stroke="#252c7f"></path><path d="M538.8 138L459.1 117L489.9 180.5Z" fill="#00101c" stroke="#00101c"></path><path d="M360.2 309L419.2 412L465.1 290.5Z" fill="#00101c" stroke="#00101c"></path><path d="M470.9 392L519.9 449.5L567.8 370Z" fill="#00101c" stroke="#00101c"></path><path d="M351.2 122L330.2 205.5L395.1 203.5Z" fill="#00172a" stroke="#00172a"></path><path d="M395.1 203.5L330.2 205.5L360.2 309Z" fill="#00101c" stroke="#00101c"></path><path d="M330.2 205.5L319.2 291.5L360.2 309Z" fill="#372c8b" stroke="#372c8b"></path><path d="M360.2 309L322.4 381L419.2 412Z" fill="#002557" stroke="#002557"></path><path d="M419.2 412L449.1 434.5L470.9 392Z" fill="#4b2a96" stroke="#4b2a96"></path><path d="M639.6 115.5L564.9 115.5L565.9 150Z" fill="#5f259f" stroke="#5f259f"></path><path d="M565.9 150L564.9 115.5L538.8 138Z" fill="#002148" stroke="#002148"></path><path d="M538.8 138L542.8 60.5L459.1 117Z" fill="#122a72" stroke="#122a72"></path><path d="M346.2 509.5L434.1 439L419.2 412Z" fill="#00172a" stroke="#00172a"></path><path d="M419.2 412L434.1 439L449.1 434.5Z" fill="#001c39" stroke="#001c39"></path><path d="M330.2 205.5L299.4 262L319.2 291.5Z" fill="#4b2a96" stroke="#4b2a96"></path><path d="M607.8 286.5L658.6 248L621.6 219.5Z" fill="#122a72" stroke="#122a72"></path><path d="M621.6 219.5L639.6 115.5L565.9 150Z" fill="#00101c" stroke="#00101c"></path><path d="M660.6 334.5L658.6 248L607.8 286.5Z" fill="#002865" stroke="#002865"></path><path d="M542.8 60.5L446.1 86.5L459.1 117Z" fill="#001c39" stroke="#001c39"></path><path d="M459.1 117L351.2 122L395.1 203.5Z" fill="#4b2a96" stroke="#4b2a96"></path><path d="M468.9 540L519.9 449.5L449.1 434.5Z" fill="#5f259f" stroke="#5f259f"></path><path d="M449.1 434.5L519.9 449.5L470.9 392Z" fill="#002865" stroke="#002865"></path><path d="M567.8 370L660.6 334.5L560.9 354.5Z" fill="#002148" stroke="#002148"></path><path d="M519.9 449.5L621.6 394L567.8 370Z" fill="#002557" stroke="#002557"></path><path d="M241.4 324.5L322.4 381L319.2 291.5Z" fill="#372c8b" stroke="#372c8b"></path><path d="M319.2 291.5L322.4 381L360.2 309Z" fill="#252c7f" stroke="#252c7f"></path><path d="M446.1 86.5L351.2 122L459.1 117Z" fill="#002865" stroke="#002865"></path><path d="M261.5 178.5L254.5 297L299.4 262Z" fill="#002557" stroke="#002557"></path><path d="M621.6 394L660.6 334.5L567.8 370Z" fill="#5f259f" stroke="#5f259f"></path><path d="M639.6 115.5L542.8 60.5L564.9 115.5Z" fill="#252c7f" stroke="#252c7f"></path><path d="M564.9 115.5L542.8 60.5L538.8 138Z" fill="#372c8b" stroke="#372c8b"></path><path d="M699.5 116L639.6 115.5L621.6 219.5Z" fill="#122a72" stroke="#122a72"></path><path d="M370.2 57.5L347.4 84L351.2 122Z" fill="#5f259f" stroke="#5f259f"></path><path d="M351.2 122L270.4 164.5L330.2 205.5Z" fill="#00172a" stroke="#00172a"></path><path d="M370.2 57.5L351.2 122L446.1 86.5Z" fill="#4b2a96" stroke="#4b2a96"></path><path d="M261.5 178.5L299.4 262L330.2 205.5Z" fill="#002865" stroke="#002865"></path><path d="M299.4 262L254.5 297L319.2 291.5Z" fill="#00101c" stroke="#00101c"></path><path d="M292.4 103.5L270.4 164.5L351.2 122Z" fill="#001c39" stroke="#001c39"></path><path d="M270.4 164.5L261.5 178.5L330.2 205.5Z" fill="#4b2a96" stroke="#4b2a96"></path><path d="M417.1 0L370.2 57.5L446.1 86.5Z" fill="#5f259f" stroke="#5f259f"></path><path d="M347.4 84L292.4 103.5L351.2 122Z" fill="#122a72" stroke="#122a72"></path><path d="M660.6 334.5L716.5 241.5L658.6 248Z" fill="#372c8b" stroke="#372c8b"></path><path d="M658.6 248L699.5 116L621.6 219.5Z" fill="#252c7f" stroke="#252c7f"></path><path d="M193.5 349.5L241.4 324.5L164.7 290Z" fill="#252c7f" stroke="#252c7f"></path><path d="M254.5 297L241.4 324.5L319.2 291.5Z" fill="#252c7f" stroke="#252c7f"></path><path d="M343.2 0L292.4 103.5L347.4 84Z" fill="#122a72" stroke="#122a72"></path><path d="M270.4 164.5L183.7 180.5L261.5 178.5Z" fill="#002865" stroke="#002865"></path><path d="M621.6 394L708.5 369L660.6 334.5Z" fill="#00172a" stroke="#00172a"></path><path d="M660.6 334.5L771.3 304L716.5 241.5Z" fill="#00172a" stroke="#00172a"></path><path d="M763.3 471.5L708.5 369L621.6 394Z" fill="#252c7f" stroke="#252c7f"></path><path d="M253.5 401L275.4 429.5L322.4 381Z" fill="#5f259f" stroke="#5f259f"></path><path d="M322.4 381L346.2 509.5L419.2 412Z" fill="#372c8b" stroke="#372c8b"></path><path d="M434.1 439L468.9 540L449.1 434.5Z" fill="#372c8b" stroke="#372c8b"></path><path d="M241.4 324.5L253.5 401L322.4 381Z" fill="#001c39" stroke="#001c39"></path><path d="M716.5 241.5L699.5 116L658.6 248Z" fill="#00101c" stroke="#00101c"></path><path d="M570.9 0L555.8 0L542.8 60.5Z" fill="#4b2a96" stroke="#4b2a96"></path><path d="M402.2 540L468.9 540L434.1 439Z" fill="#002557" stroke="#002557"></path><path d="M519.9 449.5L615.6 517.5L621.6 394Z" fill="#252c7f" stroke="#252c7f"></path><path d="M771.3 304L747.5 224L716.5 241.5Z" fill="#4b2a96" stroke="#4b2a96"></path><path d="M716.5 241.5L716.6 121L699.5 116Z" fill="#00101c" stroke="#00101c"></path><path d="M468.9 540L494.1 540L519.9 449.5Z" fill="#002557" stroke="#002557"></path><path d="M555.8 0L417.1 0L542.8 60.5Z" fill="#00101c" stroke="#00101c"></path><path d="M542.8 60.5L417.1 0L446.1 86.5Z" fill="#00172a" stroke="#00172a"></path><path d="M370.2 57.5L343.2 0L347.4 84Z" fill="#252c7f" stroke="#252c7f"></path><path d="M275.4 429.5L346.2 509.5L322.4 381Z" fill="#002557" stroke="#002557"></path><path d="M570.9 0L542.8 60.5L639.6 115.5Z" fill="#252c7f" stroke="#252c7f"></path><path d="M747.5 224L716.6 121L716.5 241.5Z" fill="#002557" stroke="#002557"></path><path d="M649.6 0L570.9 0L639.6 115.5Z" fill="#5f259f" stroke="#5f259f"></path><path d="M346.2 509.5L402.2 540L434.1 439Z" fill="#002557" stroke="#002557"></path><path d="M649.6 0L639.6 115.5L699.5 116Z" fill="#002148" stroke="#002148"></path><path d="M603.8 526.5L615.6 517.5L519.9 449.5Z" fill="#002865" stroke="#002865"></path><path d="M494.1 540L566.8 540L519.9 449.5Z" fill="#00101c" stroke="#00101c"></path><path d="M566.8 540L603.8 526.5L519.9 449.5Z" fill="#002865" stroke="#002865"></path><path d="M781.5 383.5L771.3 304L708.5 369Z" fill="#002148" stroke="#002148"></path><path d="M708.5 369L771.3 304L660.6 334.5Z" fill="#4b2a96" stroke="#4b2a96"></path><path d="M164.7 290L241.4 324.5L254.5 297Z" fill="#002557" stroke="#002557"></path><path d="M241.4 324.5L193.5 349.5L253.5 401Z" fill="#002557" stroke="#002557"></path><path d="M253.5 401L221.5 446.5L275.4 429.5Z" fill="#5f259f" stroke="#5f259f"></path><path d="M275.4 429.5L295.4 540L346.2 509.5Z" fill="#001c39" stroke="#001c39"></path><path d="M417.1 0L343.2 0L370.2 57.5Z" fill="#122a72" stroke="#122a72"></path><path d="M185.5 88L183.7 180.5L270.4 164.5Z" fill="#372c8b" stroke="#372c8b"></path><path d="M261.5 178.5L183.7 180.5L254.5 297Z" fill="#00101c" stroke="#00101c"></path><path d="M185.5 88L270.4 164.5L292.4 103.5Z" fill="#001c39" stroke="#001c39"></path><path d="M193.5 349.5L221.5 446.5L253.5 401Z" fill="#00101c" stroke="#00101c"></path><path d="M346.2 509.5L295.4 540L402.2 540Z" fill="#002557" stroke="#002557"></path><path d="M183.7 180.5L164.7 290L254.5 297Z" fill="#002557" stroke="#002557"></path><path d="M193.5 349.5L150.7 370L221.5 446.5Z" fill="#002148" stroke="#002148"></path><path d="M772.5 0L649.6 0L699.5 116Z" fill="#001c39" stroke="#001c39"></path><path d="M776.5 428.5L781.5 383.5L708.5 369Z" fill="#5f259f" stroke="#5f259f"></path><path d="M221.5 446.5L295.4 540L275.4 429.5Z" fill="#122a72" stroke="#122a72"></path><path d="M343.2 0L237.5 42.5L292.4 103.5Z" fill="#00172a" stroke="#00172a"></path><path d="M747.5 224L771.5 111.5L716.6 121Z" fill="#4b2a96" stroke="#4b2a96"></path><path d="M716.6 121L772.5 0L699.5 116Z" fill="#5f259f" stroke="#5f259f"></path><path d="M805.3 138L771.5 111.5L747.5 224Z" fill="#00172a" stroke="#00172a"></path><path d="M805.3 138L747.5 224L856.3 147.5Z" fill="#252c7f" stroke="#252c7f"></path><path d="M692.5 540L621.6 394L615.6 517.5Z" fill="#5f259f" stroke="#5f259f"></path><path d="M763.3 471.5L776.5 428.5L708.5 369Z" fill="#252c7f" stroke="#252c7f"></path><path d="M121.8 294L150.7 370L164.7 290Z" fill="#122a72" stroke="#122a72"></path><path d="M164.7 290L150.7 370L193.5 349.5Z" fill="#00172a" stroke="#00172a"></path><path d="M221.5 446.5L174.5 540L295.4 540Z" fill="#002557" stroke="#002557"></path><path d="M237.5 42.5L185.5 88L292.4 103.5Z" fill="#002148" stroke="#002148"></path><path d="M110.8 171.5L121.8 294L164.7 290Z" fill="#001c39" stroke="#001c39"></path><path d="M603.8 526.5L692.5 540L615.6 517.5Z" fill="#372c8b" stroke="#372c8b"></path><path d="M566.8 540L692.5 540L603.8 526.5Z" fill="#002865" stroke="#002865"></path><path d="M692.5 540L763.3 471.5L621.6 394Z" fill="#4b2a96" stroke="#4b2a96"></path><path d="M856.3 147.5L747.5 224L898.2 243Z" fill="#372c8b" stroke="#372c8b"></path><path d="M771.5 111.5L772.5 0L716.6 121Z" fill="#00172a" stroke="#00172a"></path><path d="M343.2 0L250.4 0L237.5 42.5Z" fill="#4b2a96" stroke="#4b2a96"></path><path d="M237.5 42.5L199.7 0L185.5 88Z" fill="#00172a" stroke="#00172a"></path><path d="M250.4 0L243.5 0L237.5 42.5Z" fill="#00101c" stroke="#00101c"></path><path d="M110.8 171.5L164.7 290L183.7 180.5Z" fill="#372c8b" stroke="#372c8b"></path><path d="M692.5 540L716.6 540L763.3 471.5Z" fill="#122a72" stroke="#122a72"></path><path d="M839.3 397L833.3 338.5L781.5 383.5Z" fill="#00172a" stroke="#00172a"></path><path d="M781.5 383.5L833.3 338.5L771.3 304Z" fill="#00172a" stroke="#00172a"></path><path d="M839.3 397L781.5 383.5L776.5 428.5Z" fill="#372c8b" stroke="#372c8b"></path><path d="M853.2 115L801.3 98.5L805.3 138Z" fill="#4b2a96" stroke="#4b2a96"></path><path d="M805.3 138L801.3 98.5L771.5 111.5Z" fill="#001c39" stroke="#001c39"></path><path d="M127.8 120.5L183.7 180.5L185.5 88Z" fill="#002148" stroke="#002148"></path><path d="M127.8 120.5L110.8 171.5L183.7 180.5Z" fill="#002148" stroke="#002148"></path><path d="M95.7 49.5L127.8 120.5L185.5 88Z" fill="#002865" stroke="#002865"></path><path d="M110.8 171.5L98.7 303.5L121.8 294Z" fill="#4b2a96" stroke="#4b2a96"></path><path d="M121.8 294L98.7 303.5L150.7 370Z" fill="#252c7f" stroke="#252c7f"></path><path d="M836.2 510.5L839.3 397L776.5 428.5Z" fill="#00101c" stroke="#00101c"></path><path d="M836.2 510.5L776.5 428.5L763.3 471.5Z" fill="#5f259f" stroke="#5f259f"></path><path d="M243.5 0L199.7 0L237.5 42.5Z" fill="#4b2a96" stroke="#4b2a96"></path><path d="M911.2 376L854.2 384.5L960 442Z" fill="#372c8b" stroke="#372c8b"></path><path d="M839.3 397L854.2 384.5L833.3 338.5Z" fill="#002148" stroke="#002148"></path><path d="M898.2 243L747.5 224L771.3 304Z" fill="#001c39" stroke="#001c39"></path><path d="M898.2 243L771.3 304L833.3 338.5Z" fill="#5f259f" stroke="#5f259f"></path><path d="M840.2 73.5L772.5 0L801.3 98.5Z" fill="#001c39" stroke="#001c39"></path><path d="M801.3 98.5L772.5 0L771.5 111.5Z" fill="#122a72" stroke="#122a72"></path><path d="M127.8 120.5L106.7 121L110.8 171.5Z" fill="#001c39" stroke="#001c39"></path><path d="M110.8 171.5L47.8 172L98.7 303.5Z" fill="#122a72" stroke="#122a72"></path><path d="M95.7 49.5L106.7 121L127.8 120.5Z" fill="#002557" stroke="#002557"></path><path d="M98.7 303.5L107.8 420.5L150.7 370Z" fill="#002148" stroke="#002148"></path><path d="M150.7 370L107.8 420.5L221.5 446.5Z" fill="#372c8b" stroke="#372c8b"></path><path d="M856.3 147.5L853.2 115L805.3 138Z" fill="#4b2a96" stroke="#4b2a96"></path><path d="M171.7 540L174.5 540L221.5 446.5Z" fill="#002148" stroke="#002148"></path><path d="M107.8 420.5L171.7 540L221.5 446.5Z" fill="#002148" stroke="#002148"></path><path d="M853.2 115L840.2 73.5L801.3 98.5Z" fill="#5f259f" stroke="#5f259f"></path><path d="M856.3 147.5L902.2 152.5L853.2 115Z" fill="#002557" stroke="#002557"></path><path d="M896.2 0L821.3 0L840.2 73.5Z" fill="#5f259f" stroke="#5f259f"></path><path d="M960 318L898.2 243L833.3 338.5Z" fill="#002865" stroke="#002865"></path><path d="M716.6 540L836.2 510.5L763.3 471.5Z" fill="#002148" stroke="#002148"></path><path d="M854.2 384.5L911.2 376L833.3 338.5Z" fill="#5f259f" stroke="#5f259f"></path><path d="M896.2 0L840.2 73.5L960 55.5Z" fill="#002557" stroke="#002557"></path><path d="M840.2 73.5L821.3 0L772.5 0Z" fill="#00172a" stroke="#00172a"></path><path d="M898.2 243L902.2 152.5L856.3 147.5Z" fill="#002865" stroke="#002865"></path><path d="M199.7 0L95.7 49.5L185.5 88Z" fill="#00172a" stroke="#00172a"></path><path d="M106.7 121L47.8 172L110.8 171.5Z" fill="#002557" stroke="#002557"></path><path d="M0 159L47.8 172L0 76.5Z" fill="#122a72" stroke="#122a72"></path><path d="M98.7 303.5L38.8 324.5L107.8 420.5Z" fill="#5f259f" stroke="#5f259f"></path><path d="M0 235.5L38.8 324.5L98.7 303.5Z" fill="#002148" stroke="#002148"></path><path d="M95.7 515.5L117.8 540L171.7 540Z" fill="#002557" stroke="#002557"></path><path d="M960 442L854.2 384.5L839.3 397Z" fill="#002865" stroke="#002865"></path><path d="M898.2 243L960 227.5L902.2 152.5Z" fill="#002148" stroke="#002148"></path><path d="M95.7 515.5L171.7 540L107.8 420.5Z" fill="#002148" stroke="#002148"></path><path d="M59.8 454L95.7 515.5L107.8 420.5Z" fill="#252c7f" stroke="#252c7f"></path><path d="M38.8 324.5L59.8 454L107.8 420.5Z" fill="#00172a" stroke="#00172a"></path><path d="M716.6 540L847.3 540L836.2 510.5Z" fill="#002557" stroke="#002557"></path><path d="M960 460.5L960 442L839.3 397Z" fill="#4b2a96" stroke="#4b2a96"></path><path d="M0 159L0 235.5L47.8 172Z" fill="#252c7f" stroke="#252c7f"></path><path d="M47.8 172L0 235.5L98.7 303.5Z" fill="#372c8b" stroke="#372c8b"></path><path d="M38.8 324.5L0 436L59.8 454Z" fill="#00101c" stroke="#00101c"></path><path d="M0 235.5L0 303L38.8 324.5Z" fill="#002865" stroke="#002865"></path><path d="M0 303L0 305.5L38.8 324.5Z" fill="#00101c" stroke="#00101c"></path><path d="M960 318L960 227.5L898.2 243Z" fill="#252c7f" stroke="#252c7f"></path><path d="M960 89L840.2 73.5L853.2 115Z" fill="#002148" stroke="#002148"></path><path d="M960 318.5L960 318L911.2 376Z" fill="#002865" stroke="#002865"></path><path d="M911.2 376L960 318L833.3 338.5Z" fill="#002557" stroke="#002557"></path><path d="M960 442L960 318.5L911.2 376Z" fill="#00101c" stroke="#00101c"></path><path d="M0 76.5L47.8 172L106.7 121Z" fill="#122a72" stroke="#122a72"></path><path d="M960 89L853.2 115L902.2 152.5Z" fill="#122a72" stroke="#122a72"></path><path d="M0 305.5L0 436L38.8 324.5Z" fill="#122a72" stroke="#122a72"></path><path d="M59.8 454L0 508.5L95.7 515.5Z" fill="#00172a" stroke="#00172a"></path><path d="M95.7 515.5L0 540L117.8 540Z" fill="#4b2a96" stroke="#4b2a96"></path><path d="M847.3 540L908.2 540L836.2 510.5Z" fill="#002148" stroke="#002148"></path><path d="M960 460.5L839.3 397L836.2 510.5Z" fill="#252c7f" stroke="#252c7f"></path><path d="M199.7 0L41.8 0L95.7 49.5Z" fill="#5f259f" stroke="#5f259f"></path><path d="M95.7 49.5L0 76.5L106.7 121Z" fill="#001c39" stroke="#001c39"></path><path d="M960 227.5L960 89L902.2 152.5Z" fill="#002865" stroke="#002865"></path><path d="M41.8 0L0 76.5L95.7 49.5Z" fill="#002557" stroke="#002557"></path><path d="M908.2 540L960 460.5L836.2 510.5Z" fill="#00101c" stroke="#00101c"></path><path d="M960 89L960 55.5L840.2 73.5Z" fill="#4b2a96" stroke="#4b2a96"></path><path d="M0 436L0 508.5L59.8 454Z" fill="#5f259f" stroke="#5f259f"></path><path d="M41.8 0L0 0L0 76.5Z" fill="#002557" stroke="#002557"></path><path d="M0 508.5L0 540L95.7 515.5Z" fill="#001c39" stroke="#001c39"></path><path d="M960 55.5L960 0L896.2 0Z" fill="#002557" stroke="#002557"></path><path d="M908.2 540L960 540L960 460.5Z" fill="#002557" stroke="#002557"></path></g></svg>